# xmcd
#
# Track frame offsets:
#	150
#	22532
#	44331
#	64062
#	88474
#	108039
#	126455
#	143715
#	173581
#	195640
#	212435
#	236035
#	254775
#
# Disc length: 3654 seconds
#
# Revision: 0
# Processed by: cddbd v1.5.1PL0 Copyright (c) Steve Scherf et al.
# Submitted via: dBpowerAMP V4.0
#
DISCID=b40e440d
DTITLE=Various Artist - Neo Japan NeoSoul
DYEAR=2004
DGENRE=JPop
TTITLE0=Toshi Kubota - No Lights... Candle Light
TTITLE1=Sowelu - Fortune
TTITLE2=Amon - Song of Happiness
TTITLE3=Chemistry - Point of No Return
TTITLE4=Crystal Kay - Candy
TTITLE5=Soulhead - Step to the New World
TTITLE6=Miss Monday - Curious
TTITLE7=Goku - I Shut You Down
TTITLE8=Michico - Jump
TTITLE9=Rhymester - Y.E.N. ~Zoku Gennama Ni Karadawo Hare~
TTITLE10=Soul'd Out - Dream Drive
TTITLE11=Loop Junktion - My Life
TTITLE12=Ken Hirai - Life is... ~another story~
EXTD=
EXTT0=
EXTT1=
EXTT2=
EXTT3=
EXTT4=
EXTT5=
EXTT6=
EXTT7=
EXTT8=
EXTT9=
EXTT10=
EXTT11=
EXTT12=
PLAYORDER=
